<svg xmlns="http://www.w3.org/2000/svg" width="80.997" height="74.15" viewBox="0 0 80.997 74.15">
  <g id="raise-complaint" transform="translate(-74.087 -39.379)">
    <path id="Path_1739" data-name="Path 1739" d="M338.212,86.522,315.051,43.148c-2.169-4.686-9.3-4.686-11.479-.036L289.612,69.251a1.34,1.34,0,0,0,2.363,1.263l13.977-26.171a3.761,3.761,0,0,1,6.718.032l23.164,43.378a3.768,3.768,0,0,1-3.346,5.428H294.559a1.34,1.34,0,0,0,0,2.68h37.929a6.461,6.461,0,0,0,5.724-9.339Z" transform="translate(-184.154 0)" fill="#31385b" stroke="#31385b" stroke-width="0.5"/>
    <path id="Path_1740" data-name="Path 1740" d="M411.7,149.646a1.34,1.34,0,0,0,1.34-1.34v-20.1a1.34,1.34,0,0,0-2.68,0v20.1A1.34,1.34,0,0,0,411.7,149.646Z" transform="translate(-286.548 -73.883)" fill="#31385b" stroke="#31385b" stroke-width="0.5"/>
    <path id="Path_1741" data-name="Path 1741" d="M410.36,307.239a1.34,1.34,0,0,0,2.68,0V303.22a1.34,1.34,0,0,0-2.68,0Z" transform="translate(-286.548 -222.095)" fill="#31385b" stroke="#31385b" stroke-width="0.5"/>
    <path id="Path_1742" data-name="Path 1742" d="M124.088,163.575c-2.359-2.835-7.434-.572-10.032,3.969V151.852a4.427,4.427,0,0,0-6.159-4.02c-1.62-5.722-9.369-3.842-8.633,2a4.435,4.435,0,0,0-6.055,4.087,4.374,4.374,0,0,0-6.057,4.065c.23,5.377-.714,21.208.943,26.194l1.8,6.645c.523,1.532.21,7.5.289,9.176a1.339,1.339,0,0,0,1.165,1.328,81.011,81.011,0,0,0,10.544.656,83.07,83.07,0,0,0,11-.708,1.339,1.339,0,0,0,1.162-1.328v-6.217a5.393,5.393,0,0,1,.88-2.918,63,63,0,0,0,3.514-6.055l6.07-18.435a3.071,3.071,0,0,0-.434-2.751Zm-2.113,1.913-6.064,18.422c-.475,1.488-4.9,6.835-4.534,9.825v5.036a84,84,0,0,1-18.515.048c-.077-2.1.249-6.73-.381-8.689l-1.8-6.64c-1.522-4.415-.632-20.715-.854-25.5a1.794,1.794,0,0,1,.492-1.223A1.7,1.7,0,0,1,93.211,158v13.3a1.34,1.34,0,0,0,2.68,0s0-13.3,0-13.307V153.9a1.69,1.69,0,1,1,3.379.019v17.373a1.34,1.34,0,0,0,2.68,0c0-3.766,0-19.054,0-22.51a1.689,1.689,0,0,1,3.377,0c0,1.36.011,20.542,0,22.51a1.34,1.34,0,0,0,2.68,0s0-19.446,0-19.449a1.687,1.687,0,1,1,3.374.008v21.49a1.347,1.347,0,0,0,2.54.6l1.066-2.155c1.763-4.378,4.2-7.077,6.935-6.638a.39.39,0,0,1,.057.342Z" transform="translate(-12.776 -88.708)" fill="#31385b" stroke="#31385b" stroke-width="0.5"/>
  </g>
</svg>
