<svg xmlns="http://www.w3.org/2000/svg" xmlns:xlink="http://www.w3.org/1999/xlink" width="32" height="32" viewBox="0 0 32 32"><defs><clipPath id="b"><rect width="32" height="32"/></clipPath></defs><g id="a" clip-path="url(#b)"><g transform="translate(-99.146 -4)"><path d="M8.025,24.684H11.14a.832.832,0,0,0,.817-.985v-.025A.83.83,0,0,0,11.14,23H8.025a.842.842,0,0,1,0-1.684h3.806l.118-.707a8.93,8.93,0,0,1,1.575-3.815l.421-.573-2.695-2.7a.837.837,0,1,1,1.187-1.179l2.7,2.686.573-.421a8.93,8.93,0,0,1,3.815-1.575l.707-.118V9.526a.842.842,0,0,1,1.684,0v3.385l.707.118A8.93,8.93,0,0,1,26.441,14.6l.573.421,2.7-2.695a.839.839,0,0,1,1.187.008.828.828,0,0,1,.244.589.8.8,0,0,1-.253.589l-2.686,2.7.421.573a8.93,8.93,0,0,1,1.575,3.815l.118.707H34.13a.842.842,0,1,1,0,1.684H31.014a.831.831,0,0,0-.817.674V23.7a.826.826,0,0,0,.808.985h3.116A2.529,2.529,0,0,0,36.6,21.653a2.608,2.608,0,0,0-2.585-2.021H31.721a10.327,10.327,0,0,0-1.331-3.225l1.684-1.693a2.5,2.5,0,0,0,.008-3.562,2.573,2.573,0,0,0-3.571-.008L26.82,12.836A10.327,10.327,0,0,0,23.6,11.505V9.636A2.6,2.6,0,0,0,21.574,7.05a2.529,2.529,0,0,0-3.032,2.476v1.979a10.327,10.327,0,0,0-3.225,1.331l-1.693-1.684a2.563,2.563,0,0,0-3.562-.008,2.49,2.49,0,0,0-.707,2.248,2.608,2.608,0,0,0,.749,1.373l1.642,1.642a10.327,10.327,0,0,0-1.331,3.225H8.126A2.6,2.6,0,0,0,5.54,21.653a2.529,2.529,0,0,0,2.476,3.032Z" transform="translate(94.069 0)"/><path d="M27.651,26.421h0a.85.85,0,0,0,.8-.581,5.79,5.79,0,0,0,.328-1.945,5.9,5.9,0,0,0-11.688-1.1,5.966,5.966,0,0,0,.227,3.048.852.852,0,0,0,.808.581h0a.856.856,0,0,0,.783-1.154A4.213,4.213,0,1,1,27.1,23.886a4.344,4.344,0,0,1-.227,1.373.848.848,0,0,0,.775,1.154Z" transform="translate(92.253 -1.737)"/><path d="M33.631,31H8.368a3.279,3.279,0,0,0-2.189.842l-.194.168A3.385,3.385,0,0,0,5,34.368a3.315,3.315,0,0,0,.682,2.055H5.674l.1.109a2.8,2.8,0,0,0,.345.362,1.132,1.132,0,0,0,.118.093,2.817,2.817,0,0,0,.792.472,3.182,3.182,0,0,0,1.339.278H33.631a3.368,3.368,0,1,0,0-6.737ZM6.9,35.2a1.691,1.691,0,0,1,1.465-2.518H9.413L6.9,35.2Zm1.533.851L11.8,32.684h1.819l-3.377,3.368Zm4.2,0,3.377-3.368h1.819l-3.377,3.368Zm4.21,0,3.377-3.368h1.819l-3.377,3.368Zm5.836,0H21.059l1.625-1.617Zm12.606-1.4a1.745,1.745,0,0,1-1.752,1.4h-9.17V32.684h9.263A1.683,1.683,0,0,1,35.29,34.655Z" transform="translate(94.146 -3.79)"/></g></g></svg>