<svg xmlns="http://www.w3.org/2000/svg" width="58.189" height="74.614" viewBox="0 0 58.189 74.614">
  <g id="noun-list-1189776" transform="translate(-153.649 -27.652)">
    <path id="Path_1738" data-name="Path 1738" d="M211.488,46.891,192.927,28.33,192.6,28H163.854A9.884,9.884,0,0,0,154,37.857v54.2a9.884,9.884,0,0,0,9.855,9.855h37.778a9.884,9.884,0,0,0,9.855-9.855Zm-6.16-.411h-3.7a7.851,7.851,0,0,1-7.8-7.8l-.164-3.86Zm-3.7,51.329H163.854a5.713,5.713,0,0,1-5.749-5.749v-54.2a5.713,5.713,0,0,1,5.749-5.749H189.4l.328,6.652a11.847,11.847,0,0,0,11.908,11.826h5.749V92.061a5.713,5.713,0,0,1-5.749,5.749ZM180.115,51.982a2.42,2.42,0,0,1,2.464-2.464h4.271a2.464,2.464,0,1,1,0,4.928h-4.271A2.42,2.42,0,0,1,180.115,51.982Zm-3.531-7.145a1.984,1.984,0,0,1,0,2.875l-6.16,6.159a1.979,1.979,0,0,1-1.478.575,1.8,1.8,0,0,1-1.4-.575l-2.464-2.464a2.033,2.033,0,0,1,2.875-2.875l.985.985,4.681-4.682a2.082,2.082,0,0,1,2.957,0Zm24.884,22.749A2.42,2.42,0,0,1,199,70.051H182.579a2.464,2.464,0,1,1,0-4.928H199A2.526,2.526,0,0,1,201.469,67.587Zm-24.884-7.145a1.984,1.984,0,0,1,0,2.875l-6.16,6.159a1.979,1.979,0,0,1-1.478.575,1.8,1.8,0,0,1-1.4-.575l-2.464-2.464a2.033,2.033,0,0,1,2.875-2.875l.985.985,4.681-4.682a2.083,2.083,0,0,1,2.957,0ZM201.469,83.19A2.42,2.42,0,0,1,199,85.654H182.579a2.464,2.464,0,1,1,0-4.928H199A2.526,2.526,0,0,1,201.469,83.19Zm-24.884-7.145a1.984,1.984,0,0,1,0,2.875l-6.16,6.159a1.979,1.979,0,0,1-1.478.575,1.8,1.8,0,0,1-1.4-.575l-2.464-2.464a2.033,2.033,0,0,1,2.875-2.875l.985.985,4.681-4.682a2.082,2.082,0,0,1,2.957,0Z" transform="translate(0 0)" fill="#31385b" stroke="#fff" stroke-width="0.7"/>
  </g>
</svg>
