<svg xmlns="http://www.w3.org/2000/svg" width="22.8" height="29.257" viewBox="0 0 22.8 29.257"><g transform="translate(-153.9 -27.9)"><path d="M176.6,35.427l-7.3-7.3-.129-.13h-11.3A3.886,3.886,0,0,0,154,31.875V53.182a3.886,3.886,0,0,0,3.874,3.874h14.851a3.886,3.886,0,0,0,3.874-3.874Zm-2.422-.162h-1.455a3.086,3.086,0,0,1-3.066-3.066l-.064-1.517Zm-1.455,20.179h-14.85a2.246,2.246,0,0,1-2.26-2.26V31.876a2.246,2.246,0,0,1,2.26-2.26h10.043l.129,2.615a4.657,4.657,0,0,0,4.681,4.649h2.26v16.3a2.246,2.246,0,0,1-2.26,2.26Zm-8.457-18.016a.951.951,0,0,1,.969-.969h1.679a.969.969,0,1,1,0,1.937h-1.679a.951.951,0,0,1-.969-.969Zm-1.388-2.809a.78.78,0,0,1,0,1.13l-2.422,2.421a.778.778,0,0,1-.581.226.708.708,0,0,1-.55-.226l-.969-.969a.8.8,0,1,1,1.13-1.13l.387.387,1.84-1.841a.818.818,0,0,1,1.162,0Zm9.783,8.943a.951.951,0,0,1-.97.969h-6.456a.969.969,0,1,1,0-1.937h6.456a.993.993,0,0,1,.971.969Zm-9.783-2.809a.78.78,0,0,1,0,1.13L160.457,44.3a.778.778,0,0,1-.581.226.708.708,0,0,1-.55-.226l-.969-.969a.8.8,0,1,1,1.13-1.13l.387.387,1.84-1.841a.819.819,0,0,1,1.162,0Zm9.783,8.943a.951.951,0,0,1-.971.969h-6.456a.969.969,0,1,1,0-1.937h6.456A.993.993,0,0,1,172.661,49.7Zm-9.783-2.809a.78.78,0,0,1,0,1.13l-2.422,2.421a.778.778,0,0,1-.581.226.708.708,0,0,1-.55-.226l-.969-.969a.8.8,0,1,1,1.13-1.13l.387.387,1.84-1.841a.818.818,0,0,1,1.162,0Z" transform="translate(0 0)" fill="#fff" stroke="#fff" stroke-width="0.2"/></g></svg>