<svg xmlns="http://www.w3.org/2000/svg" width="27.156" height="38.017" viewBox="0 0 27.156 38.017">
  <g id="location" transform="translate(-96 -32)">
    <ellipse id="Ellipse_6" data-name="Ellipse 6" cx="2.507" cy="2.82" rx="2.507" ry="2.82" transform="translate(107.071 42.867)" fill="#0fa9a6"/>
    <path id="Path_1699" data-name="Path 1699" d="M109.578,32C102.091,32,96,37.826,96,44.984c0,3.409,1.554,7.942,4.618,13.474a99.564,99.564,0,0,0,6.789,10.457,2.694,2.694,0,0,0,4.347,0,99.979,99.979,0,0,0,6.789-10.457c3.059-5.53,4.613-10.064,4.613-13.474C123.156,37.826,117.064,32,109.578,32Zm0,19.009a5.431,5.431,0,1,1,5.431-5.431A5.431,5.431,0,0,1,109.578,51.009Z" fill="#0fa9a6"/>
  </g>
</svg>
